<svg xmlns="http://www.w3.org/2000/svg" xmlns:xlink="http://www.w3.org/1999/xlink" fill="none" version="1.1" width="128" height="128" viewBox="0 0 128 128"><defs><clipPath id="master_svg0_1_1"><rect x="0" y="0" width="128" height="128" rx="0"/></clipPath><filter id="master_svg1_1_7314" filterUnits="objectBoundingBox" color-interpolation-filters="sRGB" x="-20" y="-16" width="147" height="64"><feFlood flood-opacity="0" result="BackgroundImageFix"/><feColorMatrix in="SourceAlpha" type="matrix" values="0 0 0 0 0 0 0 0 0 0 0 0 0 0 0 0 0 0 127 0"/><feOffset dy="4" dx="0"/><feGaussianBlur stdDeviation="5"/><feColorMatrix type="matrix" values="0 0 0 0 0 0 0 0 0 0 0 0 0 0 0 0 0 0 0.30000001192092896 0"/><feBlend mode="normal" in2="BackgroundImageFix" result="effect1_dropShadow"/><feBlend mode="normal" in="SourceGraphic" in2="effect1_dropShadow" result="shape"/></filter></defs><g clip-path="url(#master_svg0_1_1)"><g transform="matrix(0.9659271836280823,0.25881826877593994,-0.25881826877593994,0.9659271836280823,-4.593874235002659,-1.1059484584220627)"><path d="M72.24121186523438,28.200000000000003L74.15521186523438,34.734L34.62121186523437,34.734L34.62121186523437,35.724L26.899211865234374,34.668L26.041211865234374,13.482L23.335211865234374,14.142000000000003L20.431211865234374,6.815999999999999L34.95121186523438,1.8000000000000007L34.885211865234375,6.288L48.81121186523438,5.8260000000000005L46.76521186523438,1.8000000000000007L54.751211865234374,-0.44399999999999906L59.239211865234374,4.506L57.12721186523437,5.562000000000001L72.24121186523438,5.100000000000001L74.15521186523438,11.963999999999999L58.117211865234374,11.963999999999999L58.05121186523437,13.745999999999999L70.78921186523438,13.283999999999999L72.70321186523438,19.356L57.85321186523438,19.356L57.787211865234376,21.204L70.85521186523438,20.741999999999997L72.76921186523437,26.814L57.65521186523438,26.814L57.589211865234375,28.662L72.24121186523438,28.200000000000003ZM34.885211865234375,11.963999999999999L34.81921186523437,14.604L48.87721186523437,14.076L48.81121186523438,11.963999999999999L34.885211865234375,11.963999999999999ZM49.00921186523438,19.356L35.809211865234374,19.356L34.81921186523437,16.451999999999998L34.75321186523438,21.996000000000002L49.07521186523437,21.468000000000004L49.00921186523438,19.356ZM34.687211865234374,29.454L49.27321186523437,28.926000000000002L49.20721186523438,26.814L35.87521186523438,26.814L34.75321186523438,23.514000000000003L34.687211865234374,29.454ZM34.291211865234374,36.45L71.58121186523438,36.714L70.26121186523437,55.458L65.31121186523438,54.534000000000006L36.07321186523438,54.138000000000005L36.007211865234375,55.194L28.483211865234374,56.91L27.163211865234373,35.724L34.291211865234374,36.45ZM62.34121186523438,41.73L36.46921186523438,42.324L36.205211865234375,49.056L62.473211865234376,48.462L62.34121186523438,41.73ZM86.82721186523437,2.129999999999999L97.71721186523438,1.998000000000001L97.51921186523437,-0.9720000000000013L106.36341186523437,0.14999999999999858L106.23141186523438,1.8659999999999997L114.34941186523437,1.7340000000000018L115.80141186523437,7.079999999999998L105.90141186523438,7.079999999999998L105.76941186523437,8.73L113.62341186523437,8.597999999999999L115.07541186523437,14.009999999999998L90.65521186523438,14.009999999999998L88.74121186523438,9.059999999999999L98.17921186523438,8.861999999999998L98.04721186523437,7.079999999999998L88.74121186523438,7.079999999999998L86.82721186523437,2.129999999999999ZM118.24341186523438,9.258L117.51741186523438,-0.11400000000000077L125.76741186523438,0.7439999999999998L125.70141186523438,1.2059999999999995L137.9774118652344,1.0079999999999991L137.38341186523436,8.136L140.88141186523438,7.542000000000002L141.87141186523436,13.218L131.44341186523437,13.547999999999998L131.44341186523437,5.760000000000002L125.23941186523437,6.288L124.51341186523437,13.152000000000001L116.72541186523438,13.745999999999999L115.66941186523438,9.324000000000002L118.24341186523438,9.258ZM130.38741186523438,27.936L121.74141186523437,30.774L134.47941186523437,30.311999999999998L136.26141186523438,36.45L118.96941186523438,36.45L118.83741186523437,39.354L139.56141186523436,38.826L141.27741186523437,44.898L118.50741186523437,44.898L118.24341186523438,49.452L127.54941186523438,48.858000000000004L127.41741186523437,45.822L136.26141186523438,47.208L134.54541186523437,56.117999999999995L127.81341186523437,55.128L127.74741186523437,54.269999999999996L93.88921186523437,55.32599999999999L93.29521186523438,45.096L102.07341186523438,46.349999999999994L101.61121186523438,50.574L110.19141186523437,49.980000000000004L109.99341186523438,44.898L88.67521186523437,44.898L87.48721186523437,40.146L109.79541186523437,39.552L109.72941186523437,36.45L101.61121186523438,36.45L100.55521186523437,38.826L93.09721186523437,39.552L92.30521186523437,35.394L94.48321186523438,35.46L95.53921186523438,27.408L104.58141186523437,29.520000000000003L103.78941186523437,31.433999999999997L118.70541186523438,30.906L117.05541186523438,25.098L123.39141186523437,24.372L118.63941186523438,21.93L119.69541186523438,19.29L118.11141186523437,19.421999999999997L116.59341186523437,14.076L139.4954118652344,14.076L140.81541186523438,17.706000000000003L135.60141186523438,23.316000000000003L141.54141186523438,25.229999999999997L138.04341186523436,31.896L130.38741186523438,27.936ZM91.90921186523437,32.886L86.10121186523438,27.936L90.12721186523437,24.107999999999997L88.87321186523438,15.198L93.03121186523437,15.659999999999997L115.80141186523437,15.329999999999998L115.14141186523437,26.880000000000003L110.98341186523437,26.22L96.19921186523437,26.22L91.90921186523437,32.886ZM122.33541186523438,19.092L129.7274118652344,21.468000000000004L132.7634118652344,18.234L122.33541186523438,19.092ZM109.06941186523437,18.828000000000003L106.56141186523438,18.894L106.29741186523438,21.863999999999997L109.00341186523437,21.798000000000002L109.06941186523437,18.828000000000003ZM96.72721186523438,22.061999999999998L99.16921186523437,21.996000000000002L98.97121186523438,19.092L96.85921186523437,19.158L96.72721186523438,22.061999999999998Z" fill="#B074D1" fill-opacity="1"/></g><g filter="url(#master_svg1_1_7314)"><path d="M111.264,100.2464Q112.64,100.5103,113.387,100.6026Q113.692,100.6403,114,100.6403Q114.15,100.6403,114.3,100.6312Q114.517,100.6182,114.732,100.5865Q114.946,100.5547,115.157,100.50450000000001Q115.368,100.4543,115.574,100.38589999999999Q115.78,100.3176,115.98,100.2317Q116.179,100.14580000000001,116.37,100.043Q116.561,99.9401,116.742,99.8211Q116.924,99.7021,117.094,99.5678Q117.265,99.4335,117.423,99.285Q117.581,99.1365,117.726,98.9748Q117.87,98.81309999999999,118.001,98.6395Q118.131,98.4659,118.245,98.2816Q118.36,98.0974,118.458,97.9039Q118.556,97.7105,118.638,97.50919999999999Q118.719,97.3079,118.782,97.10040000000001Q118.845,96.8929,118.891,96.6807Q118.936,96.4684,118.962,96.2531Q119,95.9479,119,95.6403Q119,95.49,118.991,95.3399Q118.978,95.1233,118.946,94.9087Q118.914,94.694,118.864,94.4829Q118.814,94.2718,118.746,94.0659Q118.677,93.8599,118.591,93.66069999999999Q118.506,93.4614,118.403,93.2704Q118.3,93.0793,118.181,92.89789999999999Q118.062,92.7165,117.928,92.54599999999999Q117.793,92.37559999999999,117.645,92.2174Q117.496,92.0592,117.334,91.9145Q117.173,91.7698,116.999,91.6397Q116.826,91.5095,116.641,91.3949Q116.457,91.2803,116.264,91.182Q116.07,91.0838,115.869,91.0027Q115.668,90.9216,115.46,90.8582Q115.253,90.7949,115.04,90.7497Q114.828,90.7046,114.613,90.678Q114.61,90.6776,114.607,90.6772Q114.603,90.6768,114.599,90.6763Q114.18,90.6234,113.148,90.4254Q111.412,90.0924,110.381,89.9841Q108.768,89.8149,107.272,89.9335Q104.2742,89.66329999999999,100.7791,90.0375Q98.6347,90.2671,94.5856,91.006Q93.3795,91.2261,92.7873,91.3295Q89.1333,91.9679,86.9241,91.9981Q84.2665,92.03450000000001,82.1191,91.31Q77.6987,89.437,75.9472,88.1709Q75.2055,87.6347,74.4518,86.8757Q73.8911,86.3111,72.5408,84.7873Q71.7693,83.9167,71.3229,83.4212L71.1535,83.2333L70.9661,83.0635Q67.1339,79.59028,61.9777,78.5116Q58.6112,77.80731,53.1967,78.01857L52.798,78.03412L52.4069,78.11268Q51.7816,78.23829,50.5168,78.49949Q45.4239,79.55121,42.9645,79.83839Q39.2083,80.27698,36.7399,79.80856Q36.2496,79.72331,35.8893,79.3704Q35.410799999999995,78.90174999999999,34.3675,77.28190000000001Q33.403099999999995,75.78479,32.734899999999996,74.93614Q30.4043,71.50885,26.3332,69.69306Q22.7922,68.11373,18.489800000000002,68.00727Q14.513259999999999,67.90888,10.7103,69.07618Q6.69403,70.30896,3.82378,72.669802Q3.61058,72.845163,3.41798,73.0429282Q3.22539,73.240693,3.05573,73.458458Q2.88607,73.676224,2.7414199999999997,73.911342Q2.5967700000000002,74.14646,2.47888,74.39607Q2.36099,74.64569,2.2712899999999996,74.90676Q2.1816000000000004,75.16784,2.1211900000000004,75.4372Q2.0607800000000003,75.70656,2.0303899999999997,75.98093Q2,76.25531,2,76.53136Q2,76.54733,2.0000999999999998,76.56329Q2.0028300000000003,76.99053,2.0780000000000003,77.41111Q2.15318,77.83169,2.2986199999999997,78.23342Q2.4440600000000003,78.63515,2.65555,79.00638000000001Q2.8670299999999997,79.37761,3.13844,79.70758000000001Q3.29448,79.89729,3.46836,80.07079Q3.64224,80.24428,3.83229,80.3999Q4.02234,80.55552,4.22673,80.69176Q4.43111,80.82801,4.64787,80.94356Q4.86463,81.05911,5.09167,81.15286Q5.31871,81.24661,5.55384,81.31766Q5.7889800000000005,81.3887,6.029946,81.43636000000001Q6.270913,81.48401,6.515391,81.50782Q6.757124,81.53136,7,81.53136Q7.120654,81.53136,7.241174,81.52554Q7.6416070000000005,81.50621,8.03384,81.42331Q8.42608,81.34042,8.8001,81.19609Q9.17411,81.05175,9.52035,80.84967Q9.8666,80.64759,10.176210000000001,80.39292Q11.51904,79.28842,13.64465,78.63597Q15.89231,77.94606,18.2424,78.00421Q20.5454,78.0612,22.2598,78.82583Q23.7757,79.50195,24.5137,80.63139L24.6678,80.86727L24.8475,81.08435Q25.1823,81.48884,25.9605,82.69703Q27.6116,85.2603,28.8917,86.5142Q31.4788,89.0483,34.8755,89.6332Q38.8477,90.387,44.1243,89.7709Q47.0181,89.43299999999999,52.5392,88.2928Q53.423,88.1103,53.9811,87.99680000000001Q57.8728,87.8693,59.93,88.2997Q62.3128,88.7982,64.0791,90.3214Q64.4651,90.752,65.0566,91.4196Q66.5952,93.1557,67.35589999999999,93.9219Q68.685,95.2604,70.0886,96.2751Q72.7934,98.2303,78.3859,100.5886L78.5274,100.6483L78.6723,100.6992Q82.5453,102.059,87.061,101.99719999999999Q90.0681,101.956,94.5083,101.1803Q95.1375,101.0704,96.3808,100.8435Q100.0664,100.17099999999999,101.8436,99.9807Q104.5735,99.6884,106.7113,99.92699999999999L107.288,99.9913L107.863,99.922Q108.914,99.79560000000001,111.264,100.2464Z" fill-rule="evenodd" fill="#B074D1" fill-opacity="1"/></g></g></svg>